<?xml version="1.0" standalone="no"?>
<!DOCTYPE svg PUBLIC "-//W3C//DTD SVG 20010904//EN"
 "http://www.w3.org/TR/2001/REC-SVG-20010904/DTD/svg10.dtd">
<svg version="1.0" xmlns="http://www.w3.org/2000/svg"
 width="240.000000pt" height="204.000000pt" viewBox="0 0 240.000000 204.000000"
 preserveAspectRatio="xMidYMid meet">

<g transform="translate(0.000000,204.000000) scale(0.100000,-0.100000)"
fill="#000000" stroke="none">
<path d="M1110 1990 c-317 -28 -625 -246 -764 -541 -48 -100 -50 -121 -11
-130 17 -4 51 -7 77 -8 l47 -1 47 91 c32 63 69 114 121 169 165 176 359 260
598 260 l93 0 17 76 c9 41 15 77 13 79 -10 9 -156 12 -238 5z"/>
<path d="M1525 1918 c-8 -40 -66 -316 -99 -482 -18 -88 -37 -161 -43 -163 -7
-3 -31 6 -54 17 -30 16 -61 22 -108 22 -250 2 -382 -285 -216 -470 105 -117
282 -129 403 -27 71 60 75 74 198 680 20 99 39 186 43 193 11 20 104 -53 178
-140 95 -111 183 -308 183 -411 l0 -27 -170 0 -170 0 0 -68 c0 -130 -37 -225
-124 -320 -101 -108 -240 -160 -384 -142 -203 26 -366 188 -391 389 -5 40 -7
88 -4 107 l6 34 -259 -2 -259 -3 -3 -78 c-2 -44 4 -117 13 -164 90 -481 493
-809 980 -798 145 3 268 36 414 110 174 89 308 216 397 376 38 69 84 178 84
199 0 6 -36 10 -82 9 l-83 0 -42 -87 c-77 -160 -193 -276 -358 -358 -122 -60
-178 -74 -330 -81 -160 -7 -250 12 -395 83 -82 41 -109 61 -196 148 -82 83
-108 117 -146 191 -47 92 -95 252 -84 280 5 13 21 15 93 13 l87 -3 16 -65 c52
-205 202 -367 405 -436 68 -23 97 -28 190 -28 157 0 257 35 393 138 86 64 186
223 207 326 15 76 -2 70 191 70 l174 0 0 93 c0 150 -29 275 -96 410 -98 197
-254 354 -437 441 -106 50 -115 51 -122 24z m-261 -782 c47 -19 66 -51 66
-109 0 -40 -5 -54 -28 -77 -37 -37 -89 -47 -134 -26 -87 42 -91 167 -6 209 41
20 59 21 102 3z"/>
</g>
</svg>
